<svg width="21" height="24" viewBox="0 0 21 24" fill="none" xmlns="http://www.w3.org/2000/svg">
<path d="M1.01842 10.3333C1.01842 7.85798 2.00175 5.48401 3.75209 3.73367C5.50242 1.98333 7.87639 1 10.3517 1C12.8271 1 15.2011 1.98333 16.9514 3.73367C18.7018 5.48401 19.6851 7.85798 19.6851 10.3333V19.6667C19.7481 20.1699 19.6483 20.68 19.4003 21.1224C19.1523 21.5647 18.7692 21.916 18.307 22.1247C17.8448 22.3334 17.3279 22.3886 16.8321 22.2822C16.3363 22.1758 15.8876 21.9133 15.5517 21.5333C15.346 21.2701 15.083 21.0572 14.7826 20.9107C14.4823 20.7643 14.1525 20.6882 13.8184 20.6882C13.4843 20.6882 13.1545 20.7643 12.8542 20.9107C12.5539 21.0572 12.2909 21.2701 12.0851 21.5333C11.8793 21.7966 11.6163 22.0095 11.316 22.156C11.0156 22.3024 10.6859 22.3785 10.3517 22.3785C10.0176 22.3785 9.68788 22.3024 9.38754 22.156C9.08721 22.0095 8.82418 21.7966 8.61841 21.5333C8.41265 21.2701 8.14962 21.0572 7.84929 20.9107C7.54896 20.7643 7.21921 20.6882 6.88508 20.6882C6.55095 20.6882 6.22121 20.7643 5.92088 20.9107C5.62055 21.0572 5.35752 21.2701 5.15175 21.5333C4.81593 21.9133 4.36723 22.1758 3.8714 22.2822C3.37556 22.3886 2.85868 22.3334 2.3965 22.1247C1.93433 21.916 1.55116 21.5647 1.30316 21.1224C1.05516 20.68 0.955369 20.1699 1.01842 19.6667V10.3333Z" stroke="black" stroke-width="2" stroke-linecap="round" stroke-linejoin="round"/>
</svg>
