<svg width="340" height="63" viewBox="0 0 340 63" fill="none" xmlns="http://www.w3.org/2000/svg">
<path d="M51.7516 9.15896L45.0157 16.3492C41.1549 12.4973 35.4047 10.3573 30.3938 10.3573C18.072 10.3573 10.5968 20.1155 10.5968 32.4416C10.5968 42.2853 16.1005 52.4715 30.3938 52.4715C34.9118 52.4715 38.8548 51.4443 43.3728 47.678V37.0639H28.6688V26.9633H53.3124V52.2147C47.6444 58.9769 40.4977 63 30.3938 63C8.78956 63 -5.72205e-06 48.1916 -5.72205e-06 32.4416C-5.72205e-06 15.5788 10.1039 -3.8147e-06 30.3938 -3.8147e-06C38.1155 -3.8147e-06 45.8372 3.08152 51.7516 9.15896ZM68.345 1.71195L82.9669 26.4497L98.246 1.71195H111.307V2.22554L88.3885 36.8927V61.6304H77.5453V36.8927L55.4482 2.22554V1.71195H68.345ZM166.18 61.716V18.2323L147.451 44.2541H145.315L126.997 18.1467V61.716H116.154V1.79755H128.64L146.63 27.5625L164.619 1.79755H177.023V61.716H166.18ZM202.078 61.6304V11.9837H183.842V1.71195H231.157V11.9837H212.921V61.6304H202.078ZM280.609 50.5027V61.6304H237.565V1.71195H280.609V12.6685H248.326V26.4497H279.459V36.9783H248.326V50.5027H280.609ZM340 60.8601V61.6304H327.103L310.346 41.6005H299.913V61.6304H289.07V1.62636C298.188 1.62636 307.306 1.71195 316.424 1.71195C329.978 1.79755 337.125 11.2133 337.125 21.5707C337.125 29.788 333.511 38.091 322.585 40.4022L340 60.8601ZM316.424 12.2405H299.913V31.4144H316.424C323.324 31.4144 326.282 26.6209 326.282 21.8274C326.282 17.034 323.242 12.2405 316.424 12.2405Z" fill="white"/>
</svg>
